# xmcd CD database file
# Copyright (C) 1997 Ti Kan
# 
# Track frame offsets:
#     225
#     16005
#     31290
#     46182
#     60440
#     76585
#     90430
#     107890
#     123875
#     138175
#     149565
#     161947
#     177145
#     193915
# 
# Disc length: 2771 seconds
# 
# Revision: 1
# Processed by: cddbd v1.4b41PL1 Copyright (c) Steve Scherf et al.
# Submitted via: DiscPlay 4.0.4
# 
DISCID=ae0ad00e
DTITLE=Ga cho Da Fronteira - O Melhor Do Ga cho Da Fronteira
DYEAR=1900
DGENRE=
TTITLE0=Rock Bagual
TTITLE1=Sonhando Com Ela
TTITLE2=Na Base Do Varifun
TTITLE3=Sestiando Nos Meus Pelegos
TTITLE4=Saudade louca
TTITLE5=Por Baixo Dos Panos
TTITLE6=Acordes Orientais
TTITLE7=Dando Boca Pro Gatiado
TTITLE8=Isto Que   Gaiteiro Bom
TTITLE9=Mudan a Pra Capital
TTITLE10=O Dedo
TTITLE11=Ainda Morro Disso
TTITLE12=Fruta Madura
TTITLE13=Tran  o De Clarear O Dia
EXTD=
EXTT0=
EXTT1=
EXTT2=
EXTT3=
EXTT4=
EXTT5=
EXTT6=
EXTT7=
EXTT8=
EXTT9=
EXTT10=
EXTT11=
EXTT12=
EXTT13=
PLAYORDER=
